<svg width="24" height="24" viewBox="0 0 24 24" fill="none" xmlns="http://www.w3.org/2000/svg">
<rect width="24" height="24" fill="white"/>
<path d="M13.007 2.373L22.545 11.116C22.6639 11.2249 22.7471 11.3671 22.7837 11.5241C22.8204 11.6811 22.8088 11.8454 22.7504 11.9957C22.692 12.146 22.5896 12.2751 22.4566 12.3661C22.3236 12.4572 22.1662 12.5059 22.005 12.506L21.061 12.505V19.505C21.061 19.7676 21.0092 20.0277 20.9087 20.2704C20.8082 20.513 20.6609 20.7335 20.4752 20.9192C20.2895 21.1049 20.069 21.2522 19.8263 21.3528C19.5837 21.4533 19.3236 21.505 19.061 21.505H5.06097C4.79833 21.505 4.53825 21.4533 4.2956 21.3528C4.05295 21.2522 3.83247 21.1049 3.64676 20.9192C3.46104 20.7335 3.31372 20.513 3.21321 20.2704C3.1127 20.0277 3.06097 19.7676 3.06097 19.505V12.505H2.11797C1.95699 12.5047 1.79984 12.4559 1.66706 12.3649C1.53427 12.2739 1.43203 12.1449 1.3737 11.9949C1.31537 11.8448 1.30366 11.6807 1.34011 11.5239C1.37655 11.3671 1.45945 11.2249 1.57797 11.116L11.115 2.373C11.3732 2.13632 11.7107 2.00503 12.061 2.00503C12.4112 2.00503 12.7488 2.13632 13.007 2.373ZM7.32297 13.86C7.1355 14.0475 7.03018 14.3018 7.03018 14.567C7.03018 14.8322 7.1355 15.0865 7.32297 15.274C8.55358 16.5046 10.2226 17.1959 11.963 17.1959C13.7033 17.1959 15.3724 16.5046 16.603 15.274C16.7851 15.0854 16.8859 14.8328 16.8836 14.5706C16.8814 14.3084 16.7762 14.0576 16.5908 13.8722C16.4054 13.6868 16.1546 13.5816 15.8924 13.5793C15.6302 13.577 15.3776 13.6778 15.189 13.86C14.3335 14.7153 13.1732 15.1959 11.9635 15.1959C10.7537 15.1959 9.59348 14.7153 8.73797 13.86C8.6451 13.767 8.53481 13.6933 8.41341 13.6429C8.29201 13.5926 8.16189 13.5667 8.03047 13.5667C7.89905 13.5667 7.76893 13.5926 7.64753 13.6429C7.52613 13.6933 7.41584 13.767 7.32297 13.86Z" fill="black"/>
</svg>
